<?xml version="1.0" encoding="utf-8" ?>
<svg baseProfile="full" height="300mm" version="1.1" viewBox="0,0,200,300" width="200mm" xmlns="http://www.w3.org/2000/svg" xmlns:ev="http://www.w3.org/2001/xml-events" xmlns:xlink="http://www.w3.org/1999/xlink"><defs /><rect fill="#222222" height="300" width="200" x="0" y="0" /><text fill="#FFFFFF" style="font-size:12px; font-family:Arial; font-weight:bold;" x="10" y="20">grid</text><text fill="#FFFFFF" style="font-size:9px; font-family:Arial" x="10" y="290">mushviva</text><text fill="#FFFFFF" style="font-size:4px; font-family:Arial" x="65" y="280">SPECIAL TRACKS</text><rect fill="yellow" height="2.6" width="2.6" x="65" y="283" /><text fill="#FFFFFF" style="font-size:3px; font-family:Arial" x="70" y="285.5">Over 20.0 km</text><rect fill="red" height="2.6" width="2.6" x="65" y="287" /><text fill="#FFFFFF" style="font-size:3px; font-family:Arial" x="70" y="289.5">Over 40.0 km</text><text fill="#FFFFFF" style="font-size:4px; font-family:Arial" x="120" y="280">STATISTICS</text><text fill="#FFFFFF" style="font-size:3px; font-family:Arial" x="120" y="285">Number: 3</text><text fill="#FFFFFF" style="font-size:3px; font-family:Arial" x="120" y="290">Weekly: 1.5</text><text fill="#FFFFFF" style="font-size:3px; font-family:Arial" x="141" y="285">Total: 23.1 km</text><text fill="#FFFFFF" style="font-size:3px; font-family:Arial" x="141" y="290">Avg: 7.7 km</text><text fill="#FFFFFF" style="font-size:3px; font-family:Arial" x="167" y="285">Min: 4.2 km</text><text fill="#FFFFFF" style="font-size:3px; font-family:Arial" x="167" y="290">Max: 14.0 km</text><polyline fill="none" points="14.649446494411677,62.193629517481895 14.574723247205839,62.06929040962132 14.686808118131012,62.06929040962132 14.873616236262023,62.27652223853511 15.135147601366043,62.23507587972563 15.060424354160205,62.193629517481895 15.060424354160205,62.359414945793105 14.873616236262023,62.359414945793105 14.686808118131012,62.193629517481895 14.574723247205839,62.23507587972563 14.5,62.15218315162929 14.537361623486504,62.11073678228422 14.537361623486504,62.193629517481895 14.649446494411677,61.944951270590536 15.0230627306737,61.82061210021493 15.135147601366043,61.69627289872733 15.583487084833905,60.86734408925986 15.845018450170755,60.53577217643033 15.994464944582433,60.4528791634948 16.218634686199948,60.07986043326673 16.517527675256133,59.08514244359685 16.704335793387145,58.960802554065594 16.74169741687365,58.877909277245635 17.19003690034151,58.58778269845061 17.45156826567836,58.504889358941 17.563653136370704,58.38054932357045 17.899907748913392,58.29765594939818 18.0493542435579,58.173315861902665 18.64714022143744,58.13186915908591 18.83394833956845,58.04897574329516 19.581180811626837,58.04897574329516 19.95479704788886,57.717401940666605 20.888837638311088,57.38582791553927 21.113007380161434,57.17859403710463 21.26245387457311,56.76412601940683 21.374538745498285,56.92991326819174 21.5987084871158,57.05425366820418 22.084409594070166,57.05425366820418 22.64483394823037,57.22004081966588 22.869003690080717,57.75884867805871 23.279981549829245,57.92463559322641 23.42942804424092,58.09042245292221 24.139298893045634,58.21476256113965 24.737084870692343,58.504889358941 24.923892988823354,58.25620925700059 25.07333948323503,58.29765594939818 25.40959409601055,58.25620925700059 25.48431734321639,58.13186915908591 25.93265682645142,57.80029541204567 25.970018450170755,57.59306170727359 26.08210332109593,57.42727468087105 26.19418819178827,57.38582791553927 26.231549815507606,57.26148759882199 26.418357933638617,57.095700461242814 26.493081180844456,56.92991326819174 26.754612546181306,56.76412601940683 27.688653136603534,55.852295157761546 27.91282287822105,55.769401359779295 28.211715867044404,55.727954455447616 28.622693727025762,55.893742051528534 29.519372693495825,55.810848260472994 29.855627306271344,55.893742051528534 29.81826568255201,55.976635828759754 30.229243542533368,55.893742051528534 30.75230627320707,56.308210798713844 30.976476014591753,56.34965765441302 31.46217712177895,56.68123237421969 31.686346863396466,56.72267919848673 31.79843173432164,56.88846646124148 32.2467712177895,56.971360071591334 32.65774907753803,56.308210798713844 32.76983394823037,56.225317077100044 33.21817343169823,55.64506063653971 33.404981549829245,55.52071988215903 34.04012915142812,55.35493216093164 34.75,55.35493216093164 35.2730627306737,55.810848260472994 35.72140221390873,55.93518894191948 35.98293357924558,56.100976468616864 36.91697416966781,56.05952959222486 37.62684501847252,56.47399820041028 38.14990774891339,56.63978554640198 38.523523985175416,56.88846646124148 38.859778597718105,58.13186915908591 38.8224169742316,59.00224918744061 38.67297047958709,59.33382212865399 38.8224169742316,59.996967343846336 39.15867158677429,60.825897612347035 39.457564575597644,61.033129962335806 39.644372693728656,61.07457642193185 39.79381918814033,61.281808667699806 39.980627306271344,61.24036222542054 40.91466789669357,60.825897612347035 41.40036900364794,60.49432567178155 41.69926199270412,60.4528791634948 42.48385608848184,60.16275350865908 43.268450184492394,60.038413890230004 43.75415129167959,60.204200041276636 44.127767527708784,60.4528791634948 44.50138376397081,60.53577217643033 45.02444649464451,60.577218677673955 45.696955719497055,60.78445113199996 46.36946494458243,61.24036222542054 47.04197416990064,61.53048724797554 47.22878228779882,61.73771930264775 47.45295202964917,61.82061210021493 47.75184501847252,62.15218315162929 48.27490774891339,62.525200318516 48.76060885610059,62.48375398069038 49.39575645769946,62.732431956595974 49.582564575597644,62.64953931173659 49.88145756465383,62.732431956595974 50.06826568255201,62.98110980729689 51.03966789669357,63.14689497175277 51.18911439110525,63.22978753311327 51.749538745265454,63.22978753311327 51.9737084871158,63.47846513369586 52.534132841276005,63.602803887129994 52.75830258289352,63.85148130028392 53.01983394823037,63.89292752361507 53.16928044287488,64.1416047908715 53.393450184492394,64.22449718546704 53.841789667960256,64.59751278930344 53.95387453888543,64.59751278930344 54.32749077491462,64.970528111764 54.81319188210182,65.1363126092183 55.298892988823354,65.42643534601666 55.44833948346786,65.63366576805129 55.70987084857188,65.67511184207979 56.45710332109593,66.54547859347076 56.681273062713444,66.5869245911017 56.98016605176963,66.91849244656623 57.129612546181306,67.00138437570422 57.727398524060845,66.79415452684043 58.36254612542689,66.79415452684043 59.296586715849116,67.3329519534309 59.707564575597644,67.70596521251719 59.894372693728656,67.78885700958199 60.19326568255201,67.6645193087752 60.34271217719652,67.6645193087752 60.60424354253337,67.58162749072653 60.79105166066438,67.74741111279582 60.828413284150884,67.58162749072653 61.0525830257684,67.6645193087752 61.20202952041291,67.41584381306893 61.38883763831109,67.45728973767837 61.5756457564421,67.62307340148254 61.91190036898479,67.70596521251719 62.061346863629296,67.78885700958199 62.28551660524681,68.03753231768496 62.6217712177895,68.12042405924876 62.733856088714674,68.36909920055768 62.54704797035083,68.61777421689476 62.659132841276005,68.57632838960853 62.95802583009936,68.74211167826434 63.443726937286556,68.65922004086315 63.59317343169823,68.9078949111863 63.74261992634274,68.99078650699812 63.779981549829245,69.11512387444964 63.92942804424092,69.11512387444964 64.00415129167959,69.36379851566744 64.07887453888543,69.28090698245796 64.34040590422228,69.40524427700439 64.37776752770878,69.5295815403224 64.63929889304563,69.40524427700439 64.82610701117665,69.69536450930173 65.05027675279416,69.81970169968554 65.16236162371933,69.77825597301126 65.42389298882335,70.10982168890769 65.61070110695437,70.19271308300085 65.6480627306737,70.10982168890769 65.79750922531821,70.19271308300085 65.94695571972989,70.44138718236354 65.79750922531821,70.6486155030143 65.79750922531821,70.73150680685649 65.83487084880471,70.6486155030143 65.83487084880471,70.73150680685649 65.6480627306737,70.98018063526251 64.86346863466315,71.31174554515746 64.86346863466315,71.60186465916922 64.63929889304563,71.80909249343676 64.52721402235329,72.1821023763041 64.30304428050295,72.1821023763041 64.22832103306428,72.26499342324678 64.26568265678361,72.34788445621962 64.37776752770878,72.26499342324678 64.52721402235329,72.30643894153764 64.37776752770878,72.5136664804595 64.41512915119529,72.59655747190118 64.63929889304563,72.47222097966005 64.67666051653214,72.55511197794112 64.6019372693263,72.80378488931456 64.71402214025147,72.63800296228146 64.93819188210182,72.55511197794112 65.16236162371933,72.67944844919839 65.27444649464451,72.9281212981441 65.46125461254269,72.84523036237806 65.90959409601055,72.96956676075934 66.47001845017076,73.4669120417966 67.44142066431232,73.79847528453683 67.81503690057434,73.7155844947556 68.22601476032287,74.13003830504022 68.89852398540825,74.54449176814524 69.1974169742316,74.79316367919091 69.79520295211114,74.83460898557678 70.20618081185967,75.12472603283823 70.43035055347718,75.12472603283823 70.65452029532753,75.2905071261921 71.47647601482458,75.66351438345737 71.85009225108661,75.70495961679262 72.07426199270412,75.62206914648414 72.26107011083513,75.66351438345737 73.04566420684569,76.07796656133723 74.12915129144676,76.28519251997932 74.65221402235329,76.74108932356467 75.2126383765135,76.69964417701703 75.8104243541602,76.86542474248563 76.10931734321639,76.90686987523804 75.99723247229122,76.98976013020729 76.18404059042223,77.27987591325655 76.96863468643278,77.69432673658594 77.19280442828313,77.94299706383026 77.75322878244333,78.23311228779494 77.902675276855,78.23311228779494 78.16420664219186,78.10877721273573 78.98616236168891,78.19166726619005 79.3597785977181,78.10877721273573 79.62130996328779,78.19166726619005 80.10701107024215,78.19166726619005 80.2190959409345,78.27455730593647 80.368542435579,78.68900729576126 80.81688191881403,78.6475623123988 81.19049815507606,78.77189725192147 81.63883763854392,78.77189725192147 82.19926199270412,78.85478719440289 82.42343173455447,79.02056703751441 83.4321955719497,79.14490188346826 83.65636531380005,79.18634682509582 84.02998155006208,79.4764613196894 84.17942804424092,79.80802053355728 84.51568265701644,79.89091030231793 84.77721402212046,79.89091030231793 85.11346863489598,80.139579525101 85.30027675302699,80.51258312517894 85.59916974185035,80.84414164442569 85.67389298905618,81.13425516645657 85.78597785974853,81.17569994152291 86.08487084880471,81.05136560619576 86.27167896693572,81.0928103881015 86.86946494481526,81.54870275990106 86.9441881920211,81.75592642644187 86.9441881920211,82.21181818717741 87.13099631015211,82.70915417411015 87.24308118084446,82.87493272530264 87.69142066431232,83.16504505614284 87.69142066431232,83.62093551794533 88.10239852406085,84.53271518097608 87.9903136533685,84.94715992675629 87.9903136533685,85.32015990084619 87.87822878244333,85.56882639409741 87.95295202964917,85.85893714483245 87.840867158724,85.98327027159394 87.95295202964917,86.27338077922468 87.95295202964917,86.48060246626846 87.9903136533685,86.52204679319402 87.9903136533685,87.01937844604254 87.87822878244333,87.2265998205985 87.87822878244333,87.39237685754779 88.55073800752871,88.71859115370899 89.18588560889475,89.13303239204106 89.4847785977181,89.46458513257676 89.70894833956845,89.87902574578766 89.85839483398013,90.25202200072818 89.89575645769946,90.66646195421345 90.08256457583047,91.20523337455234 90.5309040590655,92.28277445450658 90.68035055347718,92.40710596664576 91.72647601482458,92.61432508387952 92.62315498176031,93.02876305792597 92.92204797058366,93.07020683621522 93.78136531380005,93.40175693770288 94.22970479703508,93.360313187266 94.64068265701644,93.02876305792597 94.82749077491462,92.98731927620247 94.82749077491462,93.11165061107022 94.6033210332971,93.40175693770288 94.6033210332971,93.81619425211102 94.82749077491462,94.23063121916493 95.0890221404843,94.35496224166127 95.16374538745731,94.35496224166127 95.27583025838248,94.47929323281278 95.31319188210182,94.64506783909746 95.31319188210182,94.47929323281278 95.5,94.47929323281278 95.42527675302699,94.60362419267767 95.38791512930766,94.47929323281278 95.38791512930766,94.14774385353667 95.4626383765135,94.47929323281278 95.42527675302699,94.06485647408408 95.38791512930766,94.31351857093978 95.35055350558832,94.14774385353667" stroke="#4DD2FF" stroke-linecap="round" stroke-linejoin="round" stroke-width="0.5"><title>2025-11-23 5.0km</title><desc>16550423007</desc></polyline><polyline fill="none" points="185.4215496366378,91.88298065648996 185.14697336545214,91.40435479453299 185.30387409194373,90.96923999168212 185.30387409194373,90.70817093501682 185.10774818388745,90.70817093501682 185.10774818388745,90.79519396851538 185.2646489101462,89.92496297744219 185.3823244550731,89.83793979813345 185.5,89.88145138966502 185.22542372881435,89.31580041599227 185.30387409194373,88.83717218763195 185.3823244550731,88.70663713983959 185.06852300232276,88.31503179925494 184.95084745739587,88.09747314907145 184.8723970942665,87.48830844365875 184.75472154957242,87.22723763695103 184.91162227583118,87.18372582297889 185.06852300232276,87.05319035946741 185.06852300232276,87.22723763695103 185.22542372881435,87.00967853105976 185.2646489101462,87.05319035946741 185.10774818388745,87.09670218429528 185.22542372881435,87.09670218429528 185.14697336545214,87.2707494472561 185.22542372881435,87.18372582297889 185.18619854701683,87.14021400551428 185.2646489101462,87.22723763695103 184.8331719127018,87.18372582297889 184.63704600464553,87.05319035946741 184.2447941887658,86.5310481771885 184.1271186438389,85.74783391915844 183.93099273578264,85.48676223735674 183.46029055700637,85.13866645732196 183.3033898305148,85.18217844265746 182.98958837776445,85.05164247599896 182.20508474553935,84.09437771738158 181.85205811122432,83.87681729884935 181.69515738496557,83.92032938980265 181.3813559319824,83.74628100389964 180.87142857140861,83.18062334696879 180.43995157373138,83.05008687701775 179.6946731233038,83.09359903723816 179.1455205809325,83.05008687701775 178.7140435834881,82.87603819943615 178.32179176737554,82.9195503743831 177.89031476993114,82.74550165297114 177.4980629538186,82.65847727045184 177.18426150130108,82.52794066918432 177.30193704599515,82.52794066918432 176.83123486675322,82.31037959447713 175.7721549635753,82.44091625031433 174.98765133158304,82.48442846158287 174.6738498788327,82.39740403534961 174.36004842608236,82.22335513890721 173.5755447940901,81.5706712580286 172.9479418885894,81.35310978203779 172.9479418885894,81.222572852741 173.06561743305065,81.17906053570914 173.0263922517188,81.09203589061508 172.79104116209783,81.30959747594898 172.71259079896845,81.222572852741 172.75181598053314,81.17906053570914 172.63414043583907,81.13554821503931 172.59491525427438,80.9179865566548 172.67336561740376,80.83096186781768 172.4380145277828,80.87447421415709 171.73196125915274,80.61340008195839 171.37893462460488,80.56988771390752 170.7905569006689,80.1782762366056 170.084503631806,80.09125142393168 169.88837772398256,79.96071417737403 169.6530266343616,79.91720175449154 169.73147699749097,79.83017689804547 169.45690072630532,79.83017689804547 169.18232445511967,79.6561271410028 168.75084745744243,79.56910224075546 168.2801452782005,79.69963958580047 168.08401937037706,79.6561271410028 167.7309927358292,79.43856486288132 167.2995157383848,79.35153992607957 167.02493946719915,79.13397752030869 166.59346246975474,79.0904650282755 166.24043583520688,78.82938999906764 166.24043583520688,78.65533990680706 166.39733656146564,78.52480229915818 166.39733656146564,78.61182737452327 166.47578692482784,78.61182737452327 165.73050847440027,78.61182737452327 165.25980629539117,78.48128975596046 164.9067796608433,78.2202144205512 164.5145278449636,78.04616412395262 164.27917675534263,77.6545507433766 163.61234866804443,77.43698762657004 163.18087167060003,77.48050025725388 163.10242130723782,77.34996235425933 162.86707021761686,77.17591176598216 162.7886198547203,77.21942441858118 162.39636803860776,77.00186111929361 162.2786924939137,76.78429772899835 161.37651331699453,76.47970882934169 161.29806295386516,76.26214522024384 161.21961259073578,76.30565794932772 160.9058111377526,76.21863248746376 160.98426150111482,76.30565794932772 160.86658595642075,76.04458151999279 160.94503631955013,76.04458151999279 160.82736077462323,76.17511975104571 160.74891041149385,75.95755601421115 159.80750605301,76.08809426729567 159.41525423713028,75.95755601421115 159.17990314774215,75.69647940984578 158.8268765131943,75.73999218642712 158.277723970823,75.60945384579827 157.49322033883072,75.73999218642712 156.55181598034687,75.69647940984578 156.43414043588564,75.65296662962646 156.12033898290247,75.34837706631515 155.92421307507902,75.73999218642712 155.06125907972455,76.08809426729567 154.94358353503048,76.00106876893551 154.66900726384483,75.95755601421115 154.59055690071546,75.78350495925406 154.43365617422387,75.65296662962646 154.39443099265918,75.47891547254403 154.43365617422387,75.39188987205853 154.3552058110945,75.47891547254403 154.3552058110945,75.34837706631515 154.2375302661676,75.52242826722795 154.04140435811132,75.65296662962646 153.57070217910223,75.47891547254403 153.41380145261064,75.60945384579827 153.92372881341726,75.04378732430632 154.08062953990884,74.56514594025793 154.7866828085389,74.434607304167 155.13970944308676,74.08650411476265 155.2966101693455,74.08650411476265 155.2966101693455,73.99947828100994 155.4927360774018,73.9559653585602 156.15956416446716,73.52083593400312 156.82639225176536,73.56434889291995 156.8656174330972,73.34678406218882 157.17941888631321,72.86814111360582 157.49322033883072,72.56354991655098 157.5716707019601,72.43301077740034 157.49322033883072,72.43301077740034 157.689346246887,72.38949772375054 157.76779661001638,72.43301077740034 157.6501210653223,72.60706295561977 157.45399515726604,72.60706295561977 157.49322033883072,72.60706295561977 157.61089588375762,72.69408902290161 157.37554479413666,72.47652382749948 157.21864406764507,72.38949772375054 156.9832929780241,72.43301077740034 156.90484261489473,72.60706295561977 156.51259079878218,72.73760205096914 154.6297820820473,72.73760205096914 153.96295399498194,73.34678406218882 153.49225181574002,73.56434889291995 153.0607748182956,73.65137479975238 151.8447941886261,73.39029703559936 151.49176755431108,73.43381000545924 150.70726392231882,73.39029703559936 150.58958837762475,73.30327108505298 150.43268765113316,72.82462809645222 150.3542372880038,72.73760205096914 150.27578692464158,72.82462809645222 150.27578692464158,72.69408902290161 149.80508474563248,72.60706295561977 149.64818401937373,72.52003687390243 149.21670702146366,72.52003687390243 148.5891041161958,72.34598466646275 148.27530266321264,71.99788007661118 148.35375302657485,71.95436698649428 148.27530266321264,71.82382769414107 147.84382566576824,71.60626213392243 147.9222760288976,71.38869648278342 148.0791767553892,71.17113074037479 148.27530266321264,71.17113074037479 148.27530266321264,71.25815704817069 148.15762711851858,71.25815704817069 148.35375302657485,70.95356490666745 148.39297820813954,71.08410441788146 148.31452784501016,71.12761758084525 148.39297820813954,71.08410441788146 148.47142857126892,71.17113074037479 148.00072639225982,71.04059125104686 147.84382566576824,70.82302536279894 147.21622276003473,70.30086685885908 146.90242130728438,70.6489725864667 146.58861985476688,70.77951217416557 146.31404358358122,71.08410441788146 146.11791767552495,71.17113074037479 145.45108958822675,71.17113074037479 145.05883777234703,71.47572275425773 144.70581113779917,71.47572275425773 144.5881355931051,71.34518334150198 144.70581113779917,71.25815704817069 144.70581113779917,71.25815704817069 144.35278450348414,71.51923588447971 144.0782082322985,71.60626213392243 143.25447941874154,71.25815704817069 143.21525423717685,71.17113074037479 142.3915254236199,70.6489725864667 142.15617433399893,70.25735362642445 142.15617433399893,69.86573437103652 141.9600484261755,69.8222211021639 141.99927360750735,69.56114141261787 142.19539951579645,69.38708821329055 142.15617433399893,69.08249497407814 141.88159806281328,68.9519549595716 142.07772397086956,68.64736146508949 142.3523002420552,68.42979457386537 142.31307506049052,68.38628118479392 142.2346246971283,68.51682134135626 142.31307506049052,68.51682134135626 141.56779661006294,68.29925439544604 141.2147699757479,67.95114709227346 141.2539951573126,67.8206067935098 141.41089588357136,67.6900664618297 141.76392251788639,67.6900664618297 142.3915254236199,67.29844526996021 142.70532687637024,67.29844526996021 142.66610169480555,67.12439131201245 142.74455205816776,67.03736431122525 142.58765133167617,67.12439131201245 142.3523002420552,67.08087781339418 142.27384987892583,67.03736431122525 142.2346246971283,66.86331026576227 142.15617433399893,66.99385080536013 142.03849878930487,66.6892561619461 141.76392251788639,66.38466133995098 141.685472154757,66.16709350052406 140.62639225181192,65.34033487929264 140.39104116219096,64.90519823390059 139.80266343802214,64.47006122398307 139.29273607744835,64.38303377816919 139.0181598062627,64.47006122398307 138.54745762702078,64.42654750283691 137.99830508464947,64.47006122398307 137.17457627132535,64.33952004974708 136.74309927341528,64.51357494137483 136.2331719128415,64.86168454933795 136.03704600478522,64.86168454933795 135.84092009672895,64.81817086119554 135.6840193704702,64.86168454933795 135.29176755435765,64.38303377816919 134.9779661016073,64.47006122398307 134.74261501198635,64.38303377816919 134.62493946705945,64.2089788428566 134.07578692468815,63.90438256566995 133.80121065373532,63.643299900199054 133.68353510880843,63.12113417513319 133.56585956388153,62.903564968088176 133.48740920075215,62.55545404707664 133.13438256666996,61.8592315048154 133.1736077480018,61.64166176895378 133.48740920075215,61.29355000171927 133.56585956388153,60.94543800110114 133.2128329295665,59.596501794294454 132.38910411600955,59.37893110996811 132.15375302662142,59.03081782560912 131.87917675543576,58.94378946800134 131.72227602894418,59.03081782560912 131.44769975775853,58.98730364869698 130.9769975785166,59.07433199888328 130.89854721538723,58.98730364869698 130.74164648889564,58.98730364869698 130.66319612576626,58.90027528369683 130.34939467324875,58.769732709246455 129.95714285690337,58.421619016240584 129.91791767533869,58.46513324059197 129.3687651332002,58.11701934348093 128.2312348666601,58.334590556507464 127.99588377703913,58.5521616783808 127.68208232452162,58.378104788280325 127.79975786898285,58.68270430783741 127.68208232452162,58.94378946800134 127.40750605310313,59.16136033460498 127.28983050840907,59.42244525416754 127.28983050840907,59.596501794294454 127.0544794187881,59.727044161001686 126.66222760267556,59.81407238729298 126.5053268764168,59.77055827589356 126.3876513314899,59.552987664792454 126.0738498789724,59.552987664792454 125.60314769973047,59.20487449702341 125.48547215480357,59.20487449702341 125.25012106518261,59.07433199888328 125.28934624698013,58.90027528369683 125.09322033892386,58.90027528369683 125.09322033892386,58.813246904232074 125.13244552048855,58.98730364869698 125.09322033892386,58.90027528369683 125.17167070205323,58.85676109584165 124.89709443086758,58.769732709246455 124.74019370460883,58.63919010167592 124.62251815968193,58.813246904232074 124.2694915253669,58.68270430783741 124.03414043574594,58.813246904232074 123.05351089593023,58.769732709246455 122.70048426138237,58.85676109584165 122.30823244550265,58.85676109584165 121.79830508469604,59.33541696224711 121.75907990289852,59.42244525416754 121.83753026626073,59.46595939461258 121.75907990289852,59.42244525416754 121.68062953976914,59.552987664792454 121.40605326858349,59.596501794294454 121.24915254232474,59.727044161001686 120.97457627090625,59.77055827589356 120.9353510895744,59.94461469928501 120.50387409189716,60.29272737100837 120.58232445502654,60.37975550245028 120.30774818384089,60.72786788237863 119.87627118639648,60.98895201401319 119.79782082303427,61.16300802890328 119.56246973341331,61.11949403063045 119.44479418871924,61.16300802890328 119.36634382558987,61.337063985469285 119.05254237283953,61.337063985469285 118.93486682791263,61.42409194173524 118.54261501203291,61.42409194173524 118.22881355928257,61.16300802890328 118.0326876512263,61.11949403063045 117.79733656160533,60.85840996450861 117.60121065354906,60.85840996450861 117.28740920079872,60.64083980914438 116.93438256648369,60.29272737100837 116.85593220312148,59.98812879610341 116.58135593193583,59.94461469928501 116.26755447918549,59.81407238729298 115.63995157368481,59.77055827589356 115.32615012093447,59.81407238729298 114.93389830482192,60.24921329977224 114.89467312349007,60.24921329977224 114.89467312349007,60.118671064352384 114.85544794169255,60.29272737100837 114.46319612581283,60.37975550245028 113.95326876500621,60.33624143851921 113.83559322007932,60.423269562772475 113.83559322007932,60.51029767221189 113.87481840187684,60.29272737100837 113.91404358344153,60.33624143851921 113.83559322007932,60.29272737100837 113.87481840187684,60.46678361928207 113.83559322007932,60.29272737100837 113.83559322007932,60.423269562772475 113.63946731225587,60.46678361928207 113.40411622263491,60.6843538476096 112.97263922495767,60.72786788237863 112.81573849846609,60.81489594076993 112.73728813533671,60.94543800110114 112.4234866828192,61.075980028748745 112.10968522983603,61.032466023258166 111.79588377708569,61.16300802890328 111.3251815980766,61.20652202347992 111.08983050845563,61.511119883536594 110.46222760272212,61.72868967408431 110.26610169489868,62.07680114955292 110.38377723959275,62.42491239157971 110.18765133153647,62.86005111565464 109.67772397072986,63.55627231573453 109.32469733664766,64.25249258219264 108.9716707020998,64.68762977453298 108.26561743323691,65.16628026490798 108.14794188854285,65.42736216459889 107.95181598048657,65.60141669132281 107.59878934617154,65.68844393300242 107.55956416460685,66.7762832211447 107.44188861967996,66.81979674534523 107.12808716692962,66.7327696934517 106.93196125887334,67.16790480696363 106.38280871650204,67.38547222706256 106.42203389806673,67.42898570004036 106.1866828086786,67.559526097466 106.06900726398453,67.7770933532156 105.79443099256605,67.99466051801573 105.79443099256605,68.21222759154625 105.36295399512164,68.99546830140753 105.16682808706537,69.60465470337658 104.9707021790091,70.47491975175217 104.85302663431503,70.6489725864667 104.61767554469407,70.77951217416557 104.5,71.25815704817069 104.69612590782344,71.73680148101994 104.73535108938813,71.99788007661118 104.9314769974444,71.99788007661118 105.12760290550068,72.25895854088594 105.12760290550068,72.38949772375054 105.32372881355695,72.69408902290161 105.51985472161323,72.78111507551512 105.6375302663073,72.91165412720875 105.55907990294509,72.78111507551512" stroke="#4DD2FF" stroke-linecap="round" stroke-linejoin="round" stroke-width="0.5"><title>2025-11-23 4.2km</title><desc>16550423655</desc></polyline><polyline fill="none" points="61.72615624230821,184.83834106985887 61.741477782663424,184.85525810881518 61.925336267682724,184.56766825816885 62.0325870506349,184.53383413187112 62.26241015683627,184.6691706040292 62.47691172262421,184.9398432830203 62.67609174805693,185.09209650947014 62.79866407136433,185.31201763892022 63.24298874341184,186.2424506021198 63.35023952630581,186.6315395107231 63.6566703345743,187.20671307985322 63.68731341545936,187.37588147261704 63.67199187504593,187.6973010381189 63.748599577113055,188.10330398677615 63.93245806207415,188.57697308747447 64.08567346620839,188.76305708056316 64.10099500662182,188.8645573699905 64.25421041081427,188.9829743114242 64.40742581494851,189.2198079911468 64.94367972947657,189.5581413494947 65.21946745703463,189.86264089941687 65.47993364406284,190.08255696255947 65.61782750778366,190.23480640795606 65.81700753315818,190.59005467858515 66.52179839229211,191.080634621816 66.73629995808005,191.16521725324856 66.79758611979196,191.28363287914544 66.6443707155995,192.18020613541012 66.18472450313857,195.69879574864171 66.09279526065802,196.91675514931558 66.09279526065802,197.37348807811213 66.12343834148487,197.4580681396037 66.09279526065802,197.61031216317497 66.23068912437884,198.5914376310975 66.21536758396542,198.76059672483825 66.27665374561911,199.30190489640518 66.24601066485047,199.50489509606268 66.35326144774444,200.43526429905614 66.39922606898472,201.04423096924438 66.35326144774444,201.09497811092297 66.39922606898472,201.34871363290586 66.36858298809966,201.41637638630345 66.50647685182048,203.02336028334685 66.4605122305802,203.22634683613433 66.44519069016678,203.5984883330675 66.41454760933993,203.7338123479858 66.36858298809966,203.80147432233207 66.24601066485047,204.3935156549269 66.24601066485047,205.08704763544665 66.29197528603254,205.42535507609136 66.47583377105184,205.89898456480296 67.28787541307975,207.4551881181833 68.26845399965532,209.56957638902531 68.28377554006875,209.68798149419308 69.2490325862309,211.58245397346036 69.23371104575926,211.68394308167626 69.46353415201884,212.14064345360384 69.43289107113378,212.17447307074326 69.6933572582202,213.00329696513654 69.9385019048932,213.91669088612252 69.98446652613347,214.2380692710576 70.03043114737375,214.35647170830634 70.13768193026772,215.69272309512598 69.86189420282608,215.96335523805465 69.90785882400814,216.08175668942567 69.83125112194102,216.16632911325723 69.73932187946048,216.77524954594264 69.67803571786499,216.82599283455056 69.27967566705775,216.91056495468365 69.92318036447978,216.91056495468365 70.01510960696032,216.91056495468365 70.09171730902744,216.9951370402414 70.10703884949908,217.2488530898263 70.03043114737375,217.95925637609616 70.06107422814239,218.04382803371118 70.04575268778717,218.33137141123007 69.6933572582202,219.78599650063552 69.23371104575926,221.03764247435902 68.83535099501023,221.9510009814694 68.78938637376996,222.22162495130033 68.6361709695775,222.6613881484518 68.52892018668354,223.15189215213468 68.51359864627011,223.3548589864804 68.46763402497163,223.42251455372025 68.52892018668354,223.54091174334462 68.49827710585669,223.62548112301738 68.52892018668354,223.87918905513652 68.68213559075957,224.38660398761567 68.85067253542366,224.7079661356256 69.64739263697993,225.8411865754897 70.75054354692111,227.54946239397395 71.08761743601644,227.98921428631002 71.77708675467875,229.0378496490157 71.7464436738519,229.08858993521426 71.88433753763093,229.22389730437135 71.8690159972175,229.29155095582246 72.06819602265023,229.612905498725 72.28269758843817,230.22178642415383 72.37462683091871,230.86449212724983 72.3593052905635,231.47336937613727 72.14480372465914,232.3697687376989 71.28679746144917,234.17946884363482 71.13358205725672,234.58538071684598 71.08761743601644,234.56846773796133 69.5094987732009,237.3929160790285 69.40224799036514,237.46056706435047 68.71277867164463,238.1370757038676 68.25313245918369,238.50915451464243 68.02330935298232,238.64445573477133 67.62494930223329,238.96579577875673 67.44109081721399,239.01653363487276 67.42576927674236,238.98270839882025 67.34916157473344,239.18565973237855 67.18062463018578,239.4224360370281 67.11933846847387,239.67612463478872 66.8895153622143,240.11585080224904 66.20004604355199,241.01221279370657 65.90893677569693,241.33354916775716 65.14285975485109,241.89165852841688 65.06625205278397,241.8747461456078 65.05093051248696,241.92548328982957 64.72917816368863,242.09460701434 64.59128429996781,242.1453441047779 63.0284871776239,243.0078727426444 62.890593313844875,243.05860960956488 62.29305323760491,243.49832860310562 61.940657808154356,243.81966112399823 61.29715311061591,244.6314463269955 61.082651544886176,245.03733773663407 60.82218535779975,245.7307337232487 60.53107608988648,246.96531108173076 60.331896064511966,247.55722912604688 60.11739449866582,247.8954672498803 59.76499906915706,248.2675285488367 59.51985442248406,248.48738263898122 59.12149437167682,248.74106014560675 58.64652661886066,248.97782553847355 58.30945272970712,249.09620813353104 57.9264142193133,249.3667966684734 57.06840795604512,249.68812009510293 55.88864934403682,250.26311866845936 55.367716969922185,250.73664570819528 54.98467845952837,251.27781814384798 54.77017689374043,251.83590073895175 54.69356919173151,252.51236247704946 54.89274921704782,256.85857651256083 54.92339229793288,257.07842149498174 54.8774276766344,257.3151773693098 54.908070757461246,257.55193297335063 55.0,259.97020687910845 54.98467845952837,260.3422465158801 54.8161415149807,260.95103720937914 54.60163994919276,261.37380747293355 53.36059517558897,262.8788626170717 52.839662801416125,263.6736626127822 52.165515023167245,264.38390684073966 51.828441133955494,264.6375649042893 51.49136724486016,264.8235806203593 50.694647143245675,265.09414863692655 49.34635158668971,265.41544769817847 48.85606229340192,265.5 47.982734489720315,265.5 47.33922979229828,265.36471630052256 46.68040355446283,265.00959616962064 46.25140042282874,264.6882964797551 45.9143265337334,264.38390684073966 45.424037240445614,264.0287850307359 44.53538789629238,263.28471831454954 44.10638476465829,262.9803266158997 42.88066153146792,261.9995058816421 42.926626152708195,261.8642198991729 43.141127718496136,261.6274692174484 44.01445552217774,260.8326613810932 43.99913398176432,260.7481071767397 43.738667794677895,260.5282660840312 43.708024713851046,260.4268008857034 43.784632415976375,260.4268008857034 43.93784782011062,260.0378504990658 43.90720473928377,260.1054940969625 43.72334625432268,260.1054940969625 43.76931087556295,260.1900485633232 43.72334625432268,260.22387034021085 43.63141701184213,260.5113552210969 43.52416622894816,260.3760682679567 43.401593905640766,260.0378504990658 43.61609547142871,260.545176945554 43.58545239054365,260.5620878057525 43.708024713851046,260.4606226239848 43.708024713851046,260.4098900145036 43.83059703721665,260.3591573925805 43.81527549686143,260.3253356377536 43.76931087556295,260.57899866453954 43.784632415976375,260.5282660840312 43.75398933514953,260.545176945554 43.861240118101705,260.4268008857034 44.09106322436128,260.79883970347873 44.22895708802389,260.69737463751517 44.53538789629238,260.2915138774406 45.01035564916674,259.69963217865734 44.97971256833989,259.68272124814393 44.8571402450325,259.95329597068485 44.59667405800428,260.20695945242187 44.320886330504436,260.62973123270785 44.244278628437314,260.6804637883906 43.708024713851046,261.3399858835328 43.15644925896777,261.79657687478175 42.957269233476836,261.9149521529471 42.85001845064107,261.89804140305205 40.98079052002868,260.477533491081 40.536465847922955,259.97020687910845 40.184070418414194,259.4628790262359 39.55588726140559,258.1776429116726 39.55588726140559,258.1099986850313 39.60185188264586,258.0761765634088 39.78571036760695,258.0423544363439 40.000211933394894,257.95779909439443 39.73974574630847,258.0592655005603 39.571208801760804,258.09308762488945 39.5099226400489,258.0592655005603 39.29542107426096,257.51811076074955 38.85109640227165,256.60490893558017 38.36080710898386,255.42112280709262 37.99309013900347,254.71084788664302 37.80923165404238,254.25424129607563 37.62537316902308,253.3917594376253 37.6406947094365,252.74912356403365 37.7632670327439,252.22486650796782 37.93180397740798,251.8866354458296 38.20759170484962,251.46384584238695 38.62127329601208,250.97340882256685 38.91238256392535,250.68591071992705 39.218813372193836,250.46605896078108 39.35670723597286,250.26311866845936 39.78571036760695,249.85723748810415 40.65903817123035,249.1131199273368 42.20651375321904,247.55722912604688 42.57423072314123,247.25281434289354 42.63551688485313,247.15134264915832 42.926626152708195,246.96531108173076 43.386272365169134,246.94839911279269 43.69270317355404,246.7454553777643 44.12170630512992,245.83220611221623 44.84181870467728,245.12189834694436 45.669181887060404,244.2086419303232 46.29736504406901,243.2953814911889 46.86426203948213,242.43285404943163 47.952091408951674,240.6063135041186 48.36577300017234,240.03128815014497 48.488345323479734,239.74377487511083 49.239100803853944,238.54297982792195 49.63746085460298,237.74808350591047 49.8366408800357,237.51130528893555 50.57207481993828,236.2259331063542 50.74061176448595,236.0060660137242 51.18493643653346,235.1435082446551 51.32283030031249,234.73759746430733 51.39943800237961,234.619206670337 52.05826424021507,232.47124766644265 52.36469504854176,230.42474633513484 52.44130275066709,229.15624363084498 52.3953381293104,228.10760886712524 52.44130275066709,227.95538725079678 52.3953381293104,227.194277492119 52.42598121019546,226.85600559112208 52.3953381293104,226.34859670441074 52.42598121019546,225.62130846720538 52.380016589013394,225.08006905284128 52.410659669782035,224.65722477693635 52.380016589013394,223.79461977895699 52.42598121019546,222.49224856767978 52.563875073974486,221.93408697165432 52.99287820560858,221.05455655738479 53.08480744808912,220.6655322988663 53.08480744808912,218.9064569693146 53.054164367204066,218.60200010797416 52.99287820560858,216.03101321851136 52.93159204389667,214.982312038308 52.96223512478173,214.33955707857967 52.90094896312803,212.81723474682076 52.85498434182955,212.03915456909453 52.8856274226564,211.1764970432705 52.77837663970422,209.5188313232211 52.74773355887737,207.7089158500603 52.77837663970422,206.6263420285104 52.732412018522155,206.33878240623744 52.793698180117644,204.8164012851339 53.00819974596379,203.7507278436533 53.10012898844434,203.5477418046503 53.17673669051146,203.07410694018472 53.268665933050215,202.92186693234544 53.0694859076757,202.9387824942678 53.45252441801131,202.24524332152214 53.621061362558976,201.788521134833 54.00409987295279,200.40143276489107 54.172636817616876,199.92779070638062 54.40245992381824,198.9466715683957 54.43310300464509,198.82826032365847 54.38713838334661,198.7944285270205 54.52503224712564,198.21928713865054 54.77017689374043,197.69489212798362 55.16853694454767,196.30777634428523 55.53625391452806,195.3773886013223 55.903970884450246,194.09175502420112 56.256366314017214,193.43201890592172 56.42490325856488,193.00911003246438 56.869227930670604,192.33245403865294 56.96115717315115,192.0956239185325 57.22162336023757,191.79112765184254 57.29823106224649,191.5542969126982 57.37483876431361,191.4697144402162 57.66594803228509,190.92838579831005 58.23284502758179,190.09947357315104 58.87634972506203,189.0844744930655 58.983600507956,188.84764065855416 59.029565129138064,188.8138072315196 59.76499906915706,187.629633802615 59.979500634945,187.39279830426676 60.22464528155979,187.3082141320774 60.34721760486718,187.20671307985322 60.43914684740594,186.71612395926786 60.607683791953605,186.3608690429828 61.77212086354848,184.55075119569665 61.818085484730545,184.5 61.925336267682724,184.5 61.87937164644245,184.63533649429155 61.72615624230821,184.753755854239 61.6648700805963,184.97367734303407 61.37376081274124,185.46427059167763 61.465690055221785,185.58268947755278 61.465690055221785,185.66727435462235 61.58826237858739,185.66727435462235 61.572940838115755,185.76877616145066 61.58826237858739,185.6841913258686 61.7874424039037,185.61652343255992 61.818085484730545,185.65035738199367 61.61890545935603,185.75185919708747 61.971300888923,185.80261008597154 61.603583918942604,185.65035738199367 61.603583918942604,185.7180252642429 61.45036851480836,185.83644400503545 61.48101159569342,185.80261008597154 61.45036851480836,185.81952704618743 61.435046974394936,185.76877616145066 61.45036851480836,185.92102877836442 61.37376081274124,185.85336096247192 61.435046974394936,185.87027791849687 61.48101159569342,185.80261008597154 61.61890545935603,185.87027791849687 61.52697621687548,185.81952704618743 61.465690055221785,185.92102877836442 61.45036851480836,185.58268947755278 61.48101159569342,185.53193853476841 61.41972543403972,185.66727435462235 61.435046974394936,185.59960645575484 61.45036851480836,185.65035738199367 61.465690055221785,185.59960645575484 61.37376081274124,185.75185919708747 61.28183157026069,185.61652343255992 61.251188489433844,185.63344040795346 61.20522386819357,185.51502155109483 61.358439272327814,185.63344040795346 61.327796191500966,185.65035738199367 61.28183157026069,185.61652343255992 61.29715311061591,185.83644400503545 61.20522386819357,185.95486267808883 61.26651002978906,185.90411182648677 61.26651002978906,185.80261008597154 61.389082353096455,185.78569312441687 61.29715311061591,185.81952704618743 61.34311773191439,185.80261008597154 61.31247465102933,185.81952704618743 61.358439272327814,185.85336096247192 61.327796191500966,185.85336096247192 61.31247465102933,185.8871948731976 61.41972543403972,185.85336096247192 61.251188489433844,185.76877616145066 61.20522386819357,185.80261008597154 61.113294625713024,185.65035738199367 61.12861616606824,185.46427059167763 60.975400761934,184.99059437093092 61.05200846400112,185.1428475600551 61.036686923587695,185.04134544639965 61.22054540854879,185.26126662976458 61.26651002978906,185.54885551711777 61.189902327780146,185.53193853476841 61.174580787308514,185.46427059167763 61.41972543403972,185.56577249804104 61.29715311061591,185.44735360245977 61.29715311061591,185.2274326167535 61.327796191500966,185.29510063724592" stroke="#4DD2FF" stroke-linecap="round" stroke-linejoin="round" stroke-width="0.5"><title>2025-10-04 14.0km</title><desc>16025828981</desc></polyline></svg>