<?xml version="1.0" encoding="utf-8" ?>
<svg baseProfile="full" height="200mm" version="1.1" viewBox="0,0,200,200" width="200mm" xmlns="http://www.w3.org/2000/svg" xmlns:ev="http://www.w3.org/2001/xml-events" xmlns:xlink="http://www.w3.org/1999/xlink"><defs /><rect fill="#1a1a1a" height="200" width="200" x="0" y="0" /><rect fill="#1a1a1a" height="200" width="180" x="10" y="0" /><text alignment-baseline="middle" fill="#e1ed5e" style="dominant-baseline: central; font-size:9.0px; font-family:Arial;" text-anchor="middle" x="100.0" y="100.0">2025</text><line stroke="#e1ed5e" stroke-width="0.3" x1="100.0" x2="100.0" y1="15.0" y2="10.0" /><path d="M 100.0 14.0 a86.0,86.0 0 0,1 42.46469731375804,11.215312516191453" fill="none" id="id1" stroke="none" /><text fill="#e1ed5e" style="font-size:6.75px; font-family:Arial;" text-anchor="middle"><textPath startOffset="22.20632615414155" xlink:href="#id1">January</textPath></text><line stroke="#e1ed5e" stroke-width="0.3" x1="143.23703022742887" x2="145.7803849466894" y1="26.81831364943548" y2="22.513508569990506" /><path d="M 143.74570117128098 25.957352633546492 a86.0,86.0 0 0,1 28.547481713284135,27.462654790039103" fill="none" id="id2" stroke="none" /><text fill="#e1ed5e" style="font-size:6.75px; font-family:Arial;" text-anchor="middle"><textPath startOffset="19.985693538727396" xlink:href="#id2">February</textPath></text><line stroke="#e1ed5e" stroke-width="0.3" x1="172.23445277983987" x2="176.4835382374775" y1="55.19839476539836" y2="52.563006222186495" /><path d="M 173.08426987136738 54.67131705675599 a86.0,86.0 0 0,1 12.851231095245387,41.99856678651699" fill="none" id="id3" stroke="none" /><text fill="#e1ed5e" style="font-size:6.75px; font-family:Arial;" text-anchor="middle"><textPath startOffset="22.20632615414155" xlink:href="#id3">March</textPath></text><line stroke="#e1ed5e" stroke-width="0.3" x1="184.98032266829074" x2="189.97916517819016" y1="98.17113171792111" y2="98.06355123074" /><path d="M 185.9800911702706 98.14961562048488 a86.0,86.0 0 0,1 -9.607161424134198,41.387399972396054" fill="none" id="id4" stroke="none" /><text fill="#e1ed5e" style="font-size:6.75px; font-family:Arial;" text-anchor="middle"><textPath startOffset="21.466115282336823" xlink:href="#id4">April</textPath></text><line stroke="#e1ed5e" stroke-width="0.3" x1="174.80103733775053" x2="179.2010983576182" y1="140.37084112569926" y2="142.7455964860345" /><path d="M 175.68104954172406 140.8457921977663 a86.0,86.0 0 0,1 -30.038265399797805,32.042727171017184" fill="none" id="id5" stroke="none" /><text fill="#e1ed5e" style="font-size:6.75px; font-family:Arial;" text-anchor="middle"><textPath startOffset="22.206326154141568" xlink:href="#id5">May</textPath></text><line stroke="#e1ed5e" stroke-width="0.3" x1="143.8653032363475" x2="146.44561519142675" y1="172.8068346515853" y2="177.08958963109032" /><path d="M 144.38136562736335 173.6633856474863 a86.0,86.0 0 0,1 -40.68145358897372,12.25698825130547" fill="none" id="id6" stroke="none" /><text fill="#e1ed5e" style="font-size:6.75px; font-family:Arial;" text-anchor="middle"><textPath startOffset="21.466115282336833" xlink:href="#id6">June</textPath></text><line stroke="#e1ed5e" stroke-width="0.3" x1="102.19456741930631" x2="102.32365962044197" y1="184.97166512339345" y2="189.96999836594603" /><path d="M 102.22038585953345 185.97133177190398 a86.0,86.0 0 0,1 -42.740103519485714,-10.115201625700543" fill="none" id="id7" stroke="none" /><text fill="#e1ed5e" style="font-size:6.75px; font-family:Arial;" text-anchor="middle"><textPath startOffset="22.20632615414155" xlink:href="#id7">July</textPath></text><line stroke="#e1ed5e" stroke-width="0.3" x1="58.666819895761336" x2="56.23545636021788" y1="174.27360380694188" y2="178.64263932499728" /><path d="M 58.180547188652646 175.14741091055294 a86.0,86.0 0 0,1 -31.652253787137756,-30.449443065178592" fill="none" id="id8" stroke="none" /><text fill="#e1ed5e" style="font-size:6.75px; font-family:Arial;" text-anchor="middle"><textPath startOffset="22.20632615414155" xlink:href="#id8">August</textPath></text><line stroke="#e1ed5e" stroke-width="0.3" x1="26.63291911575756" x2="22.317208475507996" y1="142.92168965132927" y2="145.44649492493687" /><path d="M 25.769776987707644 143.4266507060508 a86.0,86.0 0 0,1 -11.730757126820373,-40.83630448921669" fill="none" id="id9" stroke="none" /><text fill="#e1ed5e" style="font-size:6.75px; font-family:Arial;" text-anchor="middle"><textPath startOffset="21.46611528233685" xlink:href="#id9">September</textPath></text><line stroke="#e1ed5e" stroke-width="0.3" x1="15.007084014347285" x2="10.007500721073583" y1="101.09737516637583" y2="101.16192664675087" /><path d="M 14.007167355692545 101.11028546245083 a86.0,86.0 0 0,1 10.666146001902534,-42.60595125391555" fill="none" id="id10" stroke="none" /><text fill="#e1ed5e" style="font-size:6.75px; font-family:Arial;" text-anchor="middle"><textPath startOffset="22.20632615414155" xlink:href="#id10">October</textPath></text><path d="M 79.01574976396665 99.18683210126434 l -62.95275070810006 -2.4395036962069616 a84.0,84.0 0 0,0 0.06842556706600478,-1.4443555735079636 l 62.90143153280056 3.522770376337934" fill="red" stroke="none" /><path d="M 80.38941819471856 92.48833698450439 l -33.70019522869247 -12.908567049559709 a57.08786862264056,57.08786862264056 0 0,0 0.3593992597818905,-0.914631914593683 l 33.47300241902889 13.486747969049155" fill="red" stroke="none" /><path d="M 80.52162464483688 92.15188598940014 l -33.616779971342574 -13.544677986422174 a57.24287788514495,57.24287788514495 0 0,0 0.3761083680176871,-0.910776245802986 l 33.37864991643869 14.121328802678471" fill="red" stroke="none" /><path d="M 80.65960295795067 91.81776055985345 l -20.374708710540386 -8.619820204850148 a43.12306613928804,43.12306613928804 0 0,0 0.29510405829925307,-0.6811408536404999 l 20.223313942398455 8.969260203077248" fill="red" stroke="none" /><path d="M 80.95270993114464 91.15688171328213 l -31.116572703912436 -14.446544999484557 a55.306613928803884,55.306613928803884 0 0,0 0.4083255864770808,-0.8600378211281853 l 30.863288923593604 14.980025236253274" fill="red" stroke="none" /><path d="M 81.10775173730289 90.83032412892265 l -29.413645910080973 -14.276416201592786 a53.6952385720723,53.6952385720723 0 0,0 0.4107429727943383,-0.8280327692774442 l 29.16354292433322 14.780608559369192" fill="red" stroke="none" /><path d="M 81.43458229118936 90.18545643968196 l -17.687547037168585 -9.350460280195145 a41.00700946277475,41.00700946277475 0 0,0 0.335265304763329,-0.6211956917511375 l 17.523973633186785 9.653536955278755" fill="red" stroke="none" /><line stroke="#e1ed5e" stroke-width="0.3" x1="26.266209847984243" x2="21.928928074336255" y1="57.711370442889674" y2="55.22380399835377" /><path d="M 25.398753493254645 57.213857153982495 a86.0,86.0 0 0,1 29.58750427330803,-30.492523968695096" fill="none" id="id11" stroke="none" /><text fill="#e1ed5e" style="font-size:6.75px; font-family:Arial;" text-anchor="middle"><textPath startOffset="21.46611528233685" xlink:href="#id11">November</textPath></text><path d="M 82.34701348167596 88.62581576622439 l -17.931901962881177 -11.553895221984043 a42.33179792720172,42.33179792720172 0 0,0 0.39994148286216374,-0.6091383168070476 l 17.730363844661095 11.860851602768758" fill="red" stroke="none" /><path d="M 82.54541684631803 88.32363383020206 l -30.594802740656437 -20.466608485994392 a57.809292544935666,57.809292544935666 0 0,0 0.5604075056736849,-0.822328863922 l 30.237970769314014 20.990215373186807" fill="red" stroke="none" /><path d="M 82.7489923806493 88.02491185347247 l -30.19873336722867 -20.962978045432937 a57.76152806288489,57.76152806288489 0 0,0 0.5740048555984865,-0.8118891611669274 l 29.833415891826306 21.479693706931652" fill="red" stroke="none" /><path d="M 83.17141714833178 87.43820079747577 l -31.731299171899767 -23.686023484331297 a60.596755620087116,60.596755620087116 0 0,0 0.6311413523082382,-0.8305080380799131 l 31.31888187936742 24.228716298292234" fill="red" stroke="none" /><path d="M 83.39014120810768 87.1503855733568 l -18.798314698834186 -14.542633912614944 a44.76688529514845,44.76688529514845 0 0,0 0.47675862956084347,-0.6054350439454106 l 18.54520198867937 14.864061350513401" fill="red" stroke="none" /><path d="M 83.6137871275137 86.86637796730984 l -19.579983754428717 -15.693443508760046 a46.09302558453913,46.09302558453913 0 0,0 0.5015393262299338,-0.6148279112804328 l 19.30694593612239 16.02815558964856" fill="red" stroke="none" /><path d="M 84.5562425177563 85.77008943001954 l -16.661045159567553 -15.35152199169395 a43.655234566664994,43.655234566664994 0 0,0 0.5139524072344956,-0.5482485937424791 l 16.394325430362603 15.636040002314479" fill="red" stroke="none" /><path d="M 84.80347519578584 85.50635884689758 l -17.471041673795135 -16.662954975117998 a45.14314324337856,45.14314324337856 0 0,0 0.5411496382441766,-0.5577022706067579 l 17.181627771847843 16.96122144127488" fill="red" stroke="none" /><path d="M 85.05521093208273 85.24692304244772 l -28.128946849757877 -27.768108049129488 a60.526010113653435,60.526010113653435 0 0,0 0.7383141404680476,-0.7351435849134167 l 27.646796909122514 28.248187484693016" fill="red" stroke="none" /><path d="M 85.57189188830299 84.74124197986013 l -26.909400454054246 -28.45861888590748 a60.16642467330896,60.16642467330896 0 0,0 0.7586473768448981,-0.7050800563993509 l 26.415545193414495 28.917603528381484" fill="red" stroke="none" /><path d="M 85.83668400450813 84.49514656593479 l -28.728299584535932 -31.44942008000982 a63.595553997897156,63.595553997897156 0 0,0 0.8145954887229252,-0.7313518727790009 l 28.182693108217038 31.939270961558098" fill="red" stroke="none" /><path d="M 86.10567301691215 84.25364557470407 l -26.95764380079113 -30.550930194375095 a61.744004405948026,61.744004405948026 0 0,0 0.8029843095069212,-0.6963400804656177 l 26.427765692637433 31.01043526826039" fill="red" stroke="none" /><path d="M 86.93701828274178 83.55741782278169 l -25.62721729575252 -32.25738468286577 a62.19821759375156,62.19821759375156 0 0,0 0.8440222448252114,-0.6587727497450911 l 25.068162495767883 32.69373582183408" fill="red" stroke="none" /><line stroke="#e1ed5e" stroke-width="0.3" x1="56.76296977257108" x2="54.21961505331056" y1="26.818313649435495" y2="22.513508569990535" /><path d="M 56.25429882871898 25.957352633546506 a86.0,86.0 0 0,1 42.26535254187918,-11.944610805530505" fill="none" id="id12" stroke="none" /><text fill="#e1ed5e" style="font-size:6.75px; font-family:Arial;" text-anchor="middle"><textPath startOffset="22.20632615414155" xlink:href="#id12">December</textPath></text><path d="M 89.94658935756843 81.56283822128135 l -19.503592197886018 -35.76804901422059 a61.73994893105693,61.73994893105693 0 0,0 0.9374327877979506,-0.5007441298883128 l 18.885014363559765 36.098471870610645" fill="red" stroke="none" /></svg>